<?xml version="1.0" encoding="UTF-8" standalone="no"?>
<!-- Created with Inkscape (http://www.inkscape.org/) -->

<svg
   width="210mm"
   height="297mm"
   viewBox="0 0 210 297"
   version="1.1"
   id="svg5"
   inkscape:version="1.2.1 (9c6d41e410, 2022-07-14)"
   sodipodi:docname="dollar.svg"
   xmlns:inkscape="http://www.inkscape.org/namespaces/inkscape"
   xmlns:sodipodi="http://sodipodi.sourceforge.net/DTD/sodipodi-0.dtd"
   xmlns:xlink="http://www.w3.org/1999/xlink"
   xmlns="http://www.w3.org/2000/svg"
   xmlns:svg="http://www.w3.org/2000/svg">
  <sodipodi:namedview
     id="namedview7"
     pagecolor="#ffffff"
     bordercolor="#000000"
     borderopacity="0.25"
     inkscape:showpageshadow="2"
     inkscape:pageopacity="0.0"
     inkscape:pagecheckerboard="0"
     inkscape:deskcolor="#d1d1d1"
     inkscape:document-units="mm"
     showgrid="false"
     inkscape:zoom="0.85544247"
     inkscape:cx="358.87861"
     inkscape:cy="630.08328"
     inkscape:window-width="2560"
     inkscape:window-height="1566"
     inkscape:window-x="-11"
     inkscape:window-y="-11"
     inkscape:window-maximized="1"
     inkscape:current-layer="layer1" />
  <defs
     id="defs2">
    <linearGradient
       inkscape:collect="always"
       id="linearGradient911">
      <stop
         style="stop-color:#000000;stop-opacity:1;"
         offset="0"
         id="stop907" />
      <stop
         style="stop-color:#000000;stop-opacity:0;"
         offset="1"
         id="stop909" />
    </linearGradient>
    <radialGradient
       inkscape:collect="always"
       xlink:href="#linearGradient911"
       id="radialGradient913"
       cx="103.11783"
       cy="155.49657"
       fx="103.11783"
       fy="155.49657"
       r="28.55368"
       gradientTransform="matrix(0.09748816,0.68241891,-4.7016779,0.67166656,750.73422,-136.45895)"
       gradientUnits="userSpaceOnUse" />
  </defs>
  <g
     inkscape:label="Layer 1"
     inkscape:groupmode="layer"
     id="layer1">
    <path
       style="fill:#000000;stroke-width:0.264583;fill-opacity:0.20136519"
       d="m 185.26718,30.310825 c 0,0 -250.528241,-5.258001 -97.42765,121.243295 153.10059,126.50129 -59.693764,98.66483 -59.693764,98.66483"
       id="path985" />
    <path
       style="fill:#000000;stroke-width:0.264583"
       id="path537"
       d="m 110.05463,23.23373 c -1.16951,4.334748 0.22154,-0.893055 -1.33109,5.302948 -1.58737,6.334664 -1.46587,5.18736 -2.91494,12.476524 -1.85334,9.322776 -2.27556,12.675719 -3.85525,22.601335 -2.5963,17.997723 -5.29152,35.982103 -7.684917,54.008553 -1.044107,7.86393 -2.006105,15.73854 -3.016811,23.60682 -2.926533,22.78289 -3.237246,25.06743 -6.174129,47.54339 -3.579378,27.50622 -7.127367,55.01775 -10.270474,82.5777 0,0 2.515992,1.31406 2.515992,1.31406 v 0 c 0.970052,-10.98471 1.140171,-13.34665 2.353138,-25.00097 2.021067,-19.41863 4.402071,-38.79632 6.760866,-58.17606 2.991858,-23.69417 5.981097,-47.3897 9.425155,-71.02367 1.4507,-9.95501 4.2972,-28.027704 5.9517,-38.359707 0.81424,-5.084791 1.6514,-10.165887 2.4771,-15.248829 1.78847,-9.808974 2.27,-13.120555 4.35213,-22.316176 1.57725,-6.965847 1.51057,-6.204346 3.28048,-12.267862 1.31061,-4.489996 0.44284,-1.860048 1.58077,-5.160919 0,0 -3.44972,-1.877137 -3.44972,-1.877137 z" />
    <path
       style="fill:#000000;fill-opacity:1;stroke:url(#radialGradient913);stroke-width:0.264583"
       id="path539"
       d="m 137.58181,6.2225523 c -1.88215,6.5910617 -3.78009,13.1771317 -5.63698,19.7754857 -1.25469,4.45846 -2.55937,8.903383 -3.74667,13.38026 -3.80679,14.353987 -6.34056,25.290865 -9.85866,39.908797 -5.52727,23.284205 -10.38217,46.718435 -15.15671,70.165745 -3.05831,15.01905 -5.340649,25.99145 -7.984767,40.94947 -1.056363,5.97594 -1.982539,11.97417 -2.973809,17.96125 -2.928635,17.38366 -5.336368,34.85729 -7.054876,52.40288 -0.680524,6.94799 -0.763,8.57769 -1.245171,15.1746 0,0 2.91507,1.50789 2.91507,1.50789 v 0 c 0.322059,-6.45512 0.387874,-8.57361 0.913088,-15.33525 1.372552,-17.67029 3.604625,-35.26155 6.314368,-52.77396 0.941512,-6.012 1.824223,-12.03352 2.824536,-18.03602 2.62078,-15.72632 4.490121,-25.28574 7.632411,-41.13339 4.65077,-23.45543 9.52218,-46.87374 15.29615,-70.083017 1.81967,-7.110555 3.55421,-14.243444 5.45903,-21.331666 3.27298,-12.179442 5.59078,-19.762739 9.23148,-31.354191 1.93844,-6.171706 3.24896,-10.27401 5.3219,-16.112729 0.37998,-1.070244 0.79956,-2.1260114 1.19933,-3.1890175 0,0 -3.44972,-1.8771372 -3.44972,-1.8771372 z" />
  </g>
</svg>
